<?xml version="1.0" standalone="no"?><!DOCTYPE svg PUBLIC "-//W3C//DTD SVG 1.1//EN" "http://www.w3.org/Graphics/SVG/1.1/DTD/svg11.dtd"><svg class="icon" width="200px" height="200.00px" viewBox="0 0 1024 1024" version="1.1" xmlns="http://www.w3.org/2000/svg"><path fill="#000000" d="M434.773333 192a595.242667 595.242667 0 0 1 193.962667 29.013333c75.605333 27.136 91.477333 62.378667 91.477333 87.125334s-15.872 59.989333-91.477333 87.125333a595.242667 595.242667 0 0 1-193.962667 29.013333 595.242667 595.242667 0 0 1-193.962666-29.013333C165.205333 368.128 149.333333 332.8 149.333333 308.138667s15.872-59.989333 91.477334-87.125334a595.242667 595.242667 0 0 1 193.962666-29.013333z m0 189.610667a552.234667 552.234667 0 0 0 179.626667-26.496c46.677333-16.768 63.232-35.754667 63.232-46.933334s-16.554667-30.208-63.232-46.933333a552.234667 552.234667 0 0 0-179.626667-26.581333 552.234667 552.234667 0 0 0-179.541333 26.496C208.554667 277.930667 192 296.96 192 308.138667s16.554667 30.208 63.232 46.933333a552.234667 552.234667 0 0 0 179.541333 26.538667z"  /><path fill="#000000" d="M260.010667 357.632a21.333333 21.333333 0 0 1 6.442666 0.981333c8.832 2.773333 17.365333 5.162667 25.386667 7.082667h0.213333c6.869333 1.706667 13.354667 3.328 20.096 4.522667 7.424 1.322667 15.274667 2.602667 23.125334 3.925333s15.104 2.090667 22.954666 2.901333l13.354667 1.28h1.578667a75.861333 75.861333 0 0 0 12.8 1.024h1.792c13.824 1.152 28.757333 1.706667 46.933333 1.706667s33.28-0.554667 46.933333-1.706667h1.792a75.861333 75.861333 0 0 0 12.8-1.024h1.578667l13.44-1.322666c7.722667-0.810667 15.402667-1.664 22.826667-2.901334s15.701333-2.602667 23.125333-3.925333c6.741333-1.194667 13.226667-2.816 20.096-4.522667h0.256c8.021333-1.92 16.554667-4.266667 25.386667-7.082666a21.333333 21.333333 0 0 1 12.8 0c67.157333 21.674667 104.149333 54.186667 104.149333 91.605333a62.037333 62.037333 0 0 1-17.066667 41.514667 21.333333 21.333333 0 0 1-14.634666 7.082666 153.130667 153.130667 0 0 0-100.821334 46.933334 21.333333 21.333333 0 0 1-10.112 5.845333c-3.754667 0.938667-7.936 1.877333-11.946666 2.773333h-0.981334l-23.509333 4.010667c-7.978667 1.365333-15.616 2.176-23.210667 2.986667l-2.133333 0.256h0.256l-13.098667 1.28a118.912 118.912 0 0 1-18.048 1.493333c-14.762667 1.194667-30.634667 1.749333-49.792 1.749333s-34.986667-0.554667-49.792-1.749333a118.869333 118.869333 0 0 1-18.048-1.493333l-13.098666-1.28h-0.213334l-2.133333-0.256c-7.594667-0.853333-15.445333-1.706667-23.210667-2.986667s-16-2.645333-23.509333-4.010667-15.701333-3.328-22.954667-5.12a415.744 415.744 0 0 1-28.202666-7.850666C186.368 520.533333 149.333333 488.192 149.333333 450.261333s36.992-69.930667 104.149334-91.605333a21.333333 21.333333 0 0 1 6.528-1.024z m415.829333 99.541333a15.616 15.616 0 0 0 1.706667-6.869333c0-12.8-21.333333-32.64-68.266667-48.896-7.381333 2.218667-14.592 4.266667-21.333333 5.802667s-14.762667 3.669333-22.912 5.12-15.530667 2.645333-23.552 4.010666-17.066667 2.346667-25.6 3.242667l-13.184 1.28a118.912 118.912 0 0 1-18.048 1.493333c-14.762667 1.194667-30.634667 1.749333-49.792 1.749334s-34.986667-0.554667-49.792-1.749334a118.869333 118.869333 0 0 1-18.048-1.493333l-13.098667-1.28c-8.533333-0.896-17.066667-1.834667-25.6-3.285333s-16-2.645333-23.552-4.010667-15.701333-3.328-22.912-5.12-14.122667-3.584-21.333333-5.802667c-46.933333 16.256-68.266667 36.053333-68.266667 48.896 0 13.568 22.997333 34.474667 74.368 50.517334 8.874667 2.816 17.408 5.205333 25.6 7.082666h0.256c6.869333 1.706667 13.354667 3.328 20.096 4.522667 7.424 1.322667 15.274667 2.602667 23.125333 3.925333 6.613333 1.109333 13.866667 1.92 20.906667 2.688l2.005333 0.213334 13.354667 1.28h1.578667a75.861333 75.861333 0 0 0 12.8 1.024h1.792c13.824 1.152 28.757333 1.706667 46.933333 1.706666s33.28-0.554667 46.933333-1.706666h1.792a75.861333 75.861333 0 0 0 12.8-1.024h1.578667l13.354667-1.28 2.005333-0.213334c6.997333-0.768 14.250667-1.578667 20.906667-2.688 7.68-1.28 15.402667-2.56 22.656-3.84l4.821333-1.066666a195.797333 195.797333 0 0 1 113.92-54.229334z"  /><path fill="#000000" d="M260.010667 499.712a21.333333 21.333333 0 0 1 6.442666 0.981333c8.832 2.773333 17.365333 5.162667 25.386667 7.082667h0.213333c6.869333 1.706667 13.354667 3.328 20.096 4.522667 7.424 1.322667 15.274667 2.602667 23.125334 3.925333s15.104 2.090667 22.954666 2.901333l13.354667 1.28h1.578667a75.861333 75.861333 0 0 0 12.8 1.024h1.792c13.824 1.152 28.757333 1.706667 46.933333 1.706667s33.28-0.554667 46.933333-1.706667h1.792a75.818667 75.818667 0 0 0 12.8-1.024h1.578667l13.44-1.322666c7.722667-0.810667 15.402667-1.664 22.826667-2.901334l22.485333-3.797333c2.176-0.512 4.266667-0.896 6.144-1.237333s2.986667-0.512 4.053333-0.768a21.333333 21.333333 0 0 1 18.474667 37.376l-0.554667 0.64-1.493333 1.621333a155.733333 155.733333 0 0 0-39.210667 102.997333 170.666667 170.666667 0 0 0 2.005334 25.173334 21.333333 21.333333 0 0 1-17.792 24.106666c-8.533333 1.365333-17.450667 2.304-26.112 2.816a118.954667 118.954667 0 0 1-17.664 1.408c-14.762667 1.194667-30.634667 1.749333-49.792 1.749334s-34.986667-0.554667-49.792-1.749334a119.082667 119.082667 0 0 1-17.066667-1.365333 99.498667 99.498667 0 0 1-10.197333-0.896l-3.584-0.426667h-0.341334l-2.133333-0.256a439.04 439.04 0 0 1-22.656-2.901333 219.050667 219.050667 0 0 1-24.704-4.266667c-7.978667-1.450667-15.317333-3.285333-22.442667-5.034666h-0.341333l-9.941333-2.645334-10.282667-2.688h-0.512C188.842667 665.002667 149.333333 631.765333 149.333333 592.512c0-37.418667 36.992-69.930667 104.149334-91.605333a21.333333 21.333333 0 0 1 6.528-1.194667z m21.802666 49.536a356.693333 356.693333 0 0 1-21.333333-5.802667c-46.933333 16.256-68.266667 36.053333-68.266667 48.896 0 14.378667 24.874667 36.224 80.384 52.522667l9.642667 2.517333 10.154667 2.645334c6.826667 1.706667 13.269333 3.328 19.968 4.48l1.194666 0.256a176.256 176.256 0 0 0 20.778667 3.541333h1.152c6.613333 1.109333 13.866667 1.92 20.906667 2.688l2.048 0.213333 4.821333 0.597334a53.76 53.76 0 0 0 6.613333 0.64 21.333333 21.333333 0 0 1 3.498667 0.298666 75.861333 75.861333 0 0 0 12.8 1.024h1.792c13.824 1.152 28.757333 1.706667 46.933333 1.706667s33.28-0.554667 46.933334-1.706667h1.792a75.861333 75.861333 0 0 0 12.8-1.024 21.333333 21.333333 0 0 1 2.389333-0.256h2.901333c0-3.114667-0.213333-6.186667-0.213333-9.344a197.418667 197.418667 0 0 1 23.04-92.416l-8.533333 0.938667-13.184 1.28a118.826667 118.826667 0 0 1-18.048 1.493333c-14.762667 1.194667-30.634667 1.749333-49.792 1.749334s-34.986667-0.554667-49.792-1.749334a118.826667 118.826667 0 0 1-18.048-1.493333l-13.098667-1.28c-8.533333-0.896-17.066667-1.834667-25.6-3.285333s-16-2.645333-23.552-4.010667-15.829333-3.285333-23.082667-5.12z"  /><path fill="#000000" d="M434.773333 850.432a596.650667 596.650667 0 0 1-193.877333-28.928c-75.690667-27.093333-91.562667-62.293333-91.562667-87.04 0-37.674667 37.034667-70.058667 104.277334-91.221333a21.333333 21.333333 0 0 1 14.336 0.554666c0.426667 0 1.834667 0.426667 2.858666 0.64a21.333333 21.333333 0 0 1 2.56 0.682667 130.816 130.816 0 0 0 17.450667 4.565333l1.237333 0.256c6.869333 1.706667 13.354667 3.328 20.096 4.522667l1.194667 0.256a176.213333 176.213333 0 0 0 20.778667 3.541333h1.152c7.424 1.237333 15.104 2.090667 22.954666 2.901334l4.778667 0.597333a53.802667 53.802667 0 0 0 6.613333 0.64 21.333333 21.333333 0 0 1 3.498667 0.298667 75.861333 75.861333 0 0 0 12.8 1.024h1.792c13.824 1.152 28.757333 1.706667 46.933333 1.706666s33.28-0.554667 46.933334-1.706666h1.792a75.818667 75.818667 0 0 0 12.8-1.024 21.333333 21.333333 0 0 1 2.389333-0.256 222.122667 222.122667 0 0 0 22.869333-2.389334 21.333333 21.333333 0 0 1 3.328-0.256h0.426667a21.333333 21.333333 0 0 1 21.333333 21.333334 153.002667 153.002667 0 0 0 74.154667 105.770666 21.333333 21.333333 0 0 1-4.266667 38.741334 612.522667 612.522667 0 0 1-181.632 24.789333z m-174.293333-164.565333c-47.274667 15.872-68.48 35.626667-68.48 48.597333 0 11.178667 16.554667 30.165333 63.274667 46.933333a553.642667 553.642667 0 0 0 179.498666 26.410667 641.706667 641.706667 0 0 0 127.274667-11.989333 195.584 195.584 0 0 1-53.674667-91.136l-6.144 0.426666a118.912 118.912 0 0 1-17.664 1.408c-14.762667 1.194667-30.634667 1.749333-49.792 1.749334s-34.986667-0.554667-49.792-1.749334a118.997333 118.997333 0 0 1-17.066666-1.365333 99.328 99.328 0 0 1-10.368-0.981333l-3.541334-0.426667c-8.533333-0.896-16.64-1.792-25.045333-3.157333a219.050667 219.050667 0 0 1-24.704-4.266667 321.194667 321.194667 0 0 1-21.845333-4.906667 172.544 172.544 0 0 1-21.333334-5.461333z"  /><path fill="#000000" d="M698.581333 455.850667a197.376 197.376 0 1 1-194.602666 230.912 203.264 203.264 0 0 1-2.816-33.578667 197.333333 197.333333 0 0 1 197.418666-197.418667z m0 352.170666a154.794667 154.794667 0 1 0-154.752-154.837333 160.170667 160.170667 0 0 0 2.218667 26.368 154.88 154.88 0 0 0 152.533333 128.384z"  /><path fill="#000000" d="M698.666667 561.536a21.333333 21.333333 0 0 1 10.666666 2.858667l61.013334 35.2a21.333333 21.333333 0 0 1 10.666666 18.474666v70.442667a21.333333 21.333333 0 0 1-10.666666 18.474667l-61.013334 35.2a21.333333 21.333333 0 0 1-21.333333 0l-61.013333-35.2a21.333333 21.333333 0 0 1-10.666667-18.474667v-70.442667a21.333333 21.333333 0 0 1 10.666667-18.474666l61.013333-35.2a21.333333 21.333333 0 0 1 10.666667-2.858667z m39.68 68.864l-39.68-22.912-39.68 22.912v45.781333l39.68 22.912 39.68-22.912z"  /></svg>