<?xml version="1.0" standalone="no"?><!DOCTYPE svg PUBLIC "-//W3C//DTD SVG 1.1//EN" "http://www.w3.org/Graphics/SVG/1.1/DTD/svg11.dtd"><svg class="icon" width="200px" height="88.89px" viewBox="0 0 2304 1024" version="1.1" xmlns="http://www.w3.org/2000/svg"><path fill="#000000" d="M64 64v896h2176v-896h-2176z m0-64h2176A64 64 0 0 1 2304 64v896a64 64 0 0 1-64 64h-2176A64 64 0 0 1 0 960v-896A64 64 0 0 1 64 0z m1462.272 512h448v64h-448V512zM1408 543.616l120.021333-96v192L1408 543.616zM1910.272 384h64v192h-64V384zM346.88 365.824V640h203.52v-35.712H388.736V517.12h145.92v-35.712h-145.92V401.536h155.136v-35.712H346.88z m342.912 70.272a69.12 69.12 0 0 0-33.408 7.68 76.202667 76.202667 0 0 0-26.496 22.272v-24.576h-40.704V640h40.704v-119.424c1.536-16.128 7.296-28.8 16.512-38.016a41.429333 41.429333 0 0 1 30.336-12.288c30.72 0 46.464 16.896 46.464 50.688V640h40.704v-122.496c0-54.528-24.96-81.408-74.112-81.408z m180.864-58.752l-40.704 16.896v47.232h-36.864v33.792h36.864v115.2c0 15.744 3.456 27.648 11.136 36.096 7.68 8.832 20.352 13.44 37.248 13.44h32.64v-33.792h-26.112a14.506667 14.506667 0 0 1-10.752-3.84c-2.304-2.688-3.456-6.528-3.456-11.904v-115.2h45.312v-33.792h-45.312V377.344z m162.048 58.752c32.256 0 57.216 10.752 74.112 33.024 15.36 19.968 23.424 47.616 23.808 82.944h-150.528c1.536 19.2 6.528 34.176 15.744 44.544 9.216 9.984 21.888 15.36 38.016 15.36 14.208 0 25.728-3.456 34.56-9.984 6.912-5.376 12.672-14.208 18.048-25.728h40.704a89.557333 89.557333 0 0 1-27.264 46.464c-17.28 14.976-39.168 22.656-65.664 22.656-29.184 0-52.608-9.216-69.504-27.264-18.432-19.2-27.648-44.928-27.648-77.568 0-29.568 8.448-54.144 26.112-74.112 16.896-20.352 40.32-30.336 69.504-30.336z m1.152 33.408c-15.36 0-27.264 4.224-36.48 13.44-8.448 8.832-14.208 21.504-16.512 38.4H1088c-3.84-34.56-21.888-51.84-54.144-51.84z m223.488-33.408c-12.288 0-23.04 3.456-32.256 11.136-7.68 5.376-14.208 13.44-19.2 24.192v-29.952h-40.704V640h40.704v-105.216c0-17.28 4.992-31.488 15.36-42.24 9.6-9.984 20.736-14.976 33.024-14.976 9.216 0 18.816 1.152 28.8 4.224v-40.704a58.026667 58.026667 0 0 0-25.728-4.992z" /></svg>