<?xml version="1.0" standalone="no"?><!DOCTYPE svg PUBLIC "-//W3C//DTD SVG 1.1//EN" "http://www.w3.org/Graphics/SVG/1.1/DTD/svg11.dtd"><svg class="icon" width="200px" height="200.00px" viewBox="0 0 1024 1024" version="1.1" xmlns="http://www.w3.org/2000/svg"><path fill="#000000" d="M572.02549 614.901923a36.958909 36.958909 0 0 0 43.462254-27.969579l0.209914 0.051978a37.010888 37.010888 0 0 0-19.614991-40.764355A282.343713 282.343713 0 0 0 758.615302 181.445912 282.554627 282.554627 0 0 0 393.842246 18.755342a282.396692 282.396692 0 0 0-1.63933 526.776906A431.763702 431.763702 0 0 0 71.156006 882.387703a36.535082 36.535082 0 0 0 35.954319 43.674167 36.852952 36.852952 0 0 0 36.059276-29.767845 359.009409 359.009409 0 0 1 428.85489-281.392102z m-76.984565-123.723481a209.008658 209.008658 0 1 1-0.739698-418.016316 209.008658 209.008658 0 0 1 1.109547 418.016316h-0.369849z m307.035631 19.985839A136.148408 136.148408 0 0 0 665.87517 647.365667c0 24.903831 7.191064 47.850462 18.770335 67.890279L509.84588 890.001594a30.560522 30.560522 0 0 0 0 43.197362 30.402586 30.402586 0 0 0 19.827903 8.566502 30.877392 30.877392 0 0 0 6.132496 9.305201l63.976877 63.976876a30.507543 30.507543 0 1 0 43.197362-43.145382l-64.028856-63.975878-0.369849-0.264892 62.707396-62.760373 0.263892 0.422827 63.976877 63.976877a30.507543 30.507543 0 1 0 43.197361-43.144383l-64.028855-63.976877-0.369849-0.264892 41.505052-41.505053a136.4133 136.4133 0 0 0 212.233341-113.043842 135.884516 135.884516 0 0 0-135.990472-136.201386z m0 209.008658a72.806272 72.806272 0 1 1 0-145.613543 72.806272 72.806272 0 0 1 0 145.613543z"  /></svg>