<?xml version="1.0" standalone="no"?><!DOCTYPE svg PUBLIC "-//W3C//DTD SVG 1.1//EN" "http://www.w3.org/Graphics/SVG/1.1/DTD/svg11.dtd"><svg class="icon" width="200px" height="199.80px" viewBox="0 0 1025 1024" version="1.1" xmlns="http://www.w3.org/2000/svg"><path fill="#000000" d="M690.366 350.568c0-98.876-79.937-179.048-178.558-179.048-98.6 0-178.515 80.15-178.515 179.048 0 98.834 79.916 178.964 178.515 178.964 98.62 0 178.558-80.151 178.558-178.964m-314.225 0c0-75.16 60.72-136.072 135.667-136.072 74.99 0 135.667 60.912 135.667 136.072 0 75.118-60.678 136.03-135.667 136.03-74.947-0.021-135.667-60.934-135.667-136.03M197.284 762.924v15.548h15.527l291.255 0.128 315.718-0.128h15.57v-15.548c0-139.784-136.414-285.582-311.026-273.276-10.003 0.704-24.74 9.129-34.658 9.94-8.574 0.746 13.692 8.232 14.396 16.827 9.022-0.79 6.313 13.095 15.505 13.095 150.597 0 263.145 103.079 263.145 224.627l15.442-15.591-285.817-0.043-278.991 1.813 15.526 15.612c0-82.752 75.096-152.708 136.862-191.824 7.252-4.585 8.66-17.66 4.863-22.906-6.846-9.427-19.878-8.702-28.046-6.014-77.293 25.337-165.271 132.574-165.271 227.74"  /><path fill="#000000" d="M512.32 1.536C229.553 1.536 0.299 230.428 0.299 512.746 0.299 795.215 229.553 1024 512.319 1024c117.433 0 228.829-39.606 318.812-111.204 10.792-8.489 12.54-24.229 3.988-35-8.616-10.77-24.356-12.54-35.127-3.945-81.174 64.538-181.587 100.241-287.65 100.241-255.212 0-462.03-206.561-462.03-461.367 0-254.763 206.818-461.303 462.03-461.303 255.21 0 462.092 206.562 462.092 461.303 0 87.381-24.336 171.093-69.615 243.651-7.273 11.645-3.668 27.087 8.04 34.36 11.71 7.272 27.109 3.625 34.403-7.977 50.185-80.407 77.143-173.247 77.143-270.055C1024.384 230.428 795.108 1.536 512.32 1.536z"  /></svg>