<?xml version="1.0" standalone="no"?><!DOCTYPE svg PUBLIC "-//W3C//DTD SVG 1.1//EN" "http://www.w3.org/Graphics/SVG/1.1/DTD/svg11.dtd"><svg class="icon" width="200px" height="183.84px" viewBox="0 0 1114 1024" version="1.1" xmlns="http://www.w3.org/2000/svg"><path fill="#000000" d="M184.073602 330.825195h746.077849v362.34961H184.073602zM36.234961 298.938429a36.234961 36.234961 0 0 0 36.234961-36.234961V72.469922h190.233546a36.234961 36.234961 0 0 0 0-72.469922H36.234961a36.234961 36.234961 0 0 0-36.234961 36.234961v226.468507a36.234961 36.234961 0 0 0 36.234961 36.234961zM1078.352442 0h-226.468507a36.234961 36.234961 0 0 0 0 72.469922h190.233546v190.233546a36.234961 36.234961 0 1 0 72.469922 0V36.234961a36.234961 36.234961 0 0 0-36.234961-36.234961zM262.703468 951.530078H72.469922V760.934183a36.234961 36.234961 0 0 0-72.469922 0v226.468506a36.234961 36.234961 0 0 0 36.234961 36.234961h226.468507a36.234961 36.234961 0 1 0 0-72.469922zM1078.352442 724.699222a36.234961 36.234961 0 0 0-36.234961 36.234961v190.233545h-190.233546a36.234961 36.234961 0 0 0 0 72.469922h226.468507a36.234961 36.234961 0 0 0 36.234961-36.234961V760.934183a36.234961 36.234961 0 0 0-36.234961-36.234961z"  /></svg>